ISO-10303-21;
HEADER;
FILE_DESCRIPTION (( 'STEP AP214' ),
    '1' );
FILE_NAME ('LoadCell1.STEP',
    '2026-06-10T13:59:26',
    ( '' ),
    ( '' ),
    'SwSTEP 2.0',
    'SolidWorks 2024',
    '' );
FILE_SCHEMA (( 'AUTOMOTIVE_DESIGN' ));
ENDSEC;

DATA;
#1 = DIRECTION ( 'NONE',  ( -0.000000000000000000, -0.000000000000000000, -1.000000000000000000 ) ) ;
#2 = DIRECTION ( 'NONE',  ( 0.000000000000000000, 1.000000000000000000, 0.000000000000000000 ) ) ;
#3 = ORIENTED_EDGE ( 'NONE', *, *, #646, .T. ) ;
#4 = FACE_BOUND ( 'NONE', #294, .T. ) ;
#5 = AXIS2_PLACEMENT_3D ( 'NONE', #51, #358, #307 ) ;
#6 = AXIS2_PLACEMENT_3D ( 'NONE', #149, #35, #344 ) ;
#7 = DIRECTION ( 'NONE',  ( 1.000000000000000000, -1.646000966406385943E-14, 1.207399516907697934E-15 ) ) ;
#8 = DIRECTION ( 'NONE',  ( 0.000000000000000000, 0.000000000000000000, 1.000000000000000000 ) ) ;
#9 = FACE_OUTER_BOUND ( 'NONE', #100, .T. ) ;
#10 = CARTESIAN_POINT ( 'NONE',  ( 280.4364222980815384, 779.8242808914760644, -458.1310633114225084 ) ) ;
#11 = EDGE_LOOP ( 'NONE', ( #422, #248, #589, #116 ) ) ;
#12 = DIRECTION ( 'NONE',  ( -1.651081283591191695E-14, -1.000000000000000000, 0.000000000000000000 ) ) ;
#13 = ORIENTED_EDGE ( 'NONE', *, *, #175, .T. ) ;
#14 =( NAMED_UNIT ( * ) PLANE_ANGLE_UNIT ( ) SI_UNIT ( $, .RADIAN. ) );
#15 = VERTEX_POINT ( 'NONE', #432 ) ;
#16 = SURFACE_SIDE_STYLE ('',( #416 ) ) ;
#17 = DIRECTION ( 'NONE',  ( -1.000000000000000000, 1.646000966406385943E-14, -1.207399516907697934E-15 ) ) ;
#18 = AXIS2_PLACEMENT_3D ( 'NONE', #404, #452, #362 ) ;
#19 = EDGE_CURVE ( 'NONE', #185, #407, #68, .T. ) ;
#20 = EDGE_CURVE ( 'NONE', #23, #518, #351, .T. ) ;
#21 = ORIENTED_EDGE ( 'NONE', *, *, #20, .F. ) ;
#22 = CARTESIAN_POINT ( 'NONE',  ( 293.1364222980815271, 779.8242808914758371, -458.1310633114225084 ) ) ;
#23 = VERTEX_POINT ( 'NONE', #530 ) ;
#24 = CARTESIAN_POINT ( 'NONE',  ( 280.4364222980808563, 736.4190085734290960, -461.6310633114225084 ) ) ;
#25 = ORIENTED_EDGE ( 'NONE', *, *, #28, .F. ) ;
#26 = DIRECTION ( 'NONE',  ( 1.000000000000000000, -1.646000966406385943E-14, 1.207399516907697934E-15 ) ) ;
#27 = VERTEX_POINT ( 'NONE', #274 ) ;
#28 = EDGE_CURVE ( 'NONE', #27, #415, #285, .T. ) ;
#29 = LINE ( 'NONE', #181, #97 ) ;
#30 = PRODUCT_DEFINITION_FORMATION_WITH_SPECIFIED_SOURCE ( 'ANY', '', #641, .NOT_KNOWN. ) ;
#31 = ORIENTED_EDGE ( 'NONE', *, *, #393, .F. ) ;
#32 = DIRECTION ( 'NONE',  ( -1.000000000000000000, 1.646000966406385943E-14, -1.207399516907697934E-15 ) ) ;
#33 = DIRECTION ( 'NONE',  ( -1.000000000000000000, 1.646000966406385943E-14, -1.207399516907697934E-15 ) ) ;
#34 = ORIENTED_EDGE ( 'NONE', *, *, #436, .F. ) ;
#35 = DIRECTION ( 'NONE',  ( -1.000000000000000000, 1.646000966406385943E-14, -1.207399516907697934E-15 ) ) ;
#36 = ADVANCED_FACE ( 'NONE', ( #179 ), #128, .F. ) ;
#37 = EDGE_CURVE ( 'NONE', #23, #466, #227, .T. ) ;
#38 = ORIENTED_EDGE ( 'NONE', *, *, #324, .T. ) ;
#39 = CARTESIAN_POINT ( 'NONE',  ( 280.4364222980819932, 806.4190085734290960, -461.6310633114224515 ) ) ;
#40 = CARTESIAN_POINT ( 'NONE',  ( 293.1364222980815271, 779.8242808914758371, -461.6310633114224515 ) ) ;
#41 = PRESENTATION_LAYER_ASSIGNMENT (  '', '', ( #334 ) ) ;
#42 = CARTESIAN_POINT ( 'NONE',  ( 280.4364222980820500, 811.4190085734290960, -455.2810633114224288 ) ) ;
#43 = DIRECTION ( 'NONE',  ( -1.000000000000000000, 1.646000966406385943E-14, -1.207399516907697934E-15 ) ) ;
#44 = FACE_OUTER_BOUND ( 'NONE', #284, .T. ) ;
#45 = CARTESIAN_POINT ( 'NONE',  ( 293.1364222980820387, 811.4190085734288687, -467.9810633114225311 ) ) ;
#46 = FACE_OUTER_BOUND ( 'NONE', #280, .T. ) ;
#47 = ORIENTED_EDGE ( 'NONE', *, *, #94, .F. ) ;
#48 = DIRECTION ( 'NONE',  ( -1.665334536937735757E-14, -1.000000000000000000, 0.000000000000000000 ) ) ;
#49 = AXIS2_PLACEMENT_3D ( 'NONE', #291, #444, #640 ) ;
#50 = LINE ( 'NONE', #456, #310 ) ;
#51 = CARTESIAN_POINT ( 'NONE',  ( 280.4364222980808563, 736.4190085734290960, -461.6310633114225084 ) ) ;
#52 = FACE_BOUND ( 'NONE', #439, .T. ) ;
#53 = DIRECTION ( 'NONE',  ( 1.000000000000000000, -1.646000966406385943E-14, 1.207399516907697934E-15 ) ) ;
#54 = DIRECTION ( 'NONE',  ( 0.000000000000000000, -1.000000000000000000, 0.000000000000000000 ) ) ;
#55 = DIRECTION ( 'NONE',  ( -1.651081283591191695E-14, -1.000000000000000000, 0.000000000000000000 ) ) ;
#56 = AXIS2_PLACEMENT_3D ( 'NONE', #24, #281, #626 ) ;
#57 = FACE_OUTER_BOUND ( 'NONE', #576, .T. ) ;
#58 = CARTESIAN_POINT ( 'NONE',  ( 280.4364222980808563, 734.9190085734290960, -461.6310633114225084 ) ) ;
#59 = FACE_BOUND ( 'NONE', #658, .T. ) ;
#60 = ORIENTED_EDGE ( 'NONE', *, *, #134, .T. ) ;
#61 = EDGE_CURVE ( 'NONE', #72, #418, #232, .T. ) ;
#62 = ORIENTED_EDGE ( 'NONE', *, *, #329, .F. ) ;
#63 = PLANE ( 'NONE',  #560 ) ;
#64 = ADVANCED_FACE ( 'NONE', ( #427 ), #132, .F. ) ;
#65 = CARTESIAN_POINT ( 'NONE',  ( 293.1364222980819818, 806.4190085734288687, -461.6310633114224515 ) ) ;
#66 = CIRCLE ( 'NONE', #490, 1.499999999999945821 ) ;
#67 = ORIENTED_EDGE ( 'NONE', *, *, #600, .F. ) ;
#68 = LINE ( 'NONE', #384, #580 ) ;
#69 = COLOUR_RGB ( '',0.7921568627450980005, 0.8196078431372548767, 0.9333333333333333481 ) ;
#70 = ORIENTED_EDGE ( 'NONE', *, *, #606, .F. ) ;
#71 = CARTESIAN_POINT ( 'NONE',  ( 280.4364222980810837, 749.9190085734292097, -461.6310633114225084 ) ) ;
#72 = VERTEX_POINT ( 'NONE', #475 ) ;
#73 = DIRECTION ( 'NONE',  ( 1.665334536937735757E-14, 1.000000000000000000, 6.938893903907232322E-16 ) ) ;
#74 = VECTOR ( 'NONE', #433, 1000.000000000000000 ) ;
#75 = ORIENTED_EDGE ( 'NONE', *, *, #265, .T. ) ;
#76 = AXIS2_PLACEMENT_3D ( 'NONE', #222, #176, #633 ) ;
#77 = DIRECTION ( 'NONE',  ( 0.000000000000000000, -1.000000000000000000, 0.000000000000000000 ) ) ;
#78 = ORIENTED_EDGE ( 'NONE', *, *, #628, .T. ) ;
#79 = CARTESIAN_POINT ( 'NONE',  ( 293.1364222980819818, 804.9190085734288687, -461.6310633114224515 ) ) ;
#80 = VECTOR ( 'NONE', #306, 1000.000000000000000 ) ;
#81 = VERTEX_POINT ( 'NONE', #430 ) ;
#82 = EDGE_CURVE ( 'NONE', #178, #340, #283, .T. ) ;
#83 = CARTESIAN_POINT ( 'NONE',  ( 280.4364222980812542, 763.0137362553821276, -458.1310633114225084 ) ) ;
#84 = AXIS2_PLACEMENT_3D ( 'NONE', #113, #256, #254 ) ;
#85 = VECTOR ( 'NONE', #55, 1000.000000000000000 ) ;
#86 = EDGE_LOOP ( 'NONE', ( #217, #235, #639, #383 ) ) ;
#87 = CARTESIAN_POINT ( 'NONE',  ( 293.1364222980819818, 806.4190085734288687, -461.6310633114224515 ) ) ;
#88 = CARTESIAN_POINT ( 'NONE',  ( 293.1364222980819818, 807.9190085734287550, -461.6310633114224515 ) ) ;
#89 = LINE ( 'NONE', #184, #448 ) ;
#90 = CARTESIAN_POINT ( 'NONE',  ( 280.4364222980815384, 779.8242808914760644, -461.6310633114224515 ) ) ;
#91 = CARTESIAN_POINT ( 'NONE',  ( 0.000000000000000000, 0.000000000000000000, 0.000000000000000000 ) ) ;
#92 = DIRECTION ( 'NONE',  ( -1.586032892321675912E-14, -1.000000000000000000, 0.000000000000000000 ) ) ;
#93 = CARTESIAN_POINT ( 'NONE',  ( 280.4364222980810837, 752.9190085734290960, -461.6310633114225084 ) ) ;
#94 = EDGE_CURVE ( 'NONE', #15, #572, #29, .T. ) ;
#95 = FACE_OUTER_BOUND ( 'NONE', #167, .T. ) ;
#96 = FACE_BOUND ( 'NONE', #269, .T. ) ;
#97 = VECTOR ( 'NONE', #389, 1000.000000000000000 ) ;
#98 = CYLINDRICAL_SURFACE ( 'NONE', #18, 3.500000000000058620 ) ;
#99 = CARTESIAN_POINT ( 'NONE',  ( 280.4364222980813111, 763.0137362553819003, -458.1310633114225084 ) ) ;
#100 = EDGE_LOOP ( 'NONE', ( #473, #513, #25, #624 ) ) ;
#101 = VECTOR ( 'NONE', #1, 1000.000000000000000 ) ;
#102 = CARTESIAN_POINT ( 'NONE',  ( 280.4364222980810837, 751.4190085734290960, -461.6310633114225084 ) ) ;
#103 = ORIENTED_EDGE ( 'NONE', *, *, #403, .T. ) ;
#104 = CARTESIAN_POINT ( 'NONE',  ( 293.1364222980808449, 734.9190085734288687, -461.6310633114225084 ) ) ;
#105 = EDGE_CURVE ( 'NONE', #268, #171, #165, .T. ) ;
#106 = EDGE_CURVE ( 'NONE', #428, #407, #199, .T. ) ;
#107 = CARTESIAN_POINT ( 'NONE',  ( 280.4364222980812542, 763.0137362553821276, -465.1310633114224515 ) ) ;
#108 = CARTESIAN_POINT ( 'NONE',  ( 280.4364222980810837, 752.9190085734290960, -461.6310633114225084 ) ) ;
#109 = EDGE_LOOP ( 'NONE', ( #67, #381, #621, #332 ) ) ;
#110 = DIRECTION ( 'NONE',  ( -1.000000000000000000, 1.646000966406385943E-14, -1.207399516907697934E-15 ) ) ;
#111 = ORIENTED_EDGE ( 'NONE', *, *, #126, .F. ) ;
#112 = CIRCLE ( 'NONE', #166, 3.499999999999947597 ) ;
#113 = CARTESIAN_POINT ( 'NONE',  ( 293.1364222980810723, 751.4190085734288687, -461.6310633114225084 ) ) ;
#114 = ORIENTED_EDGE ( 'NONE', *, *, #647, .F. ) ;
#115 = CYLINDRICAL_SURFACE ( 'NONE', #161, 1.499999999999945821 ) ;
#116 = ORIENTED_EDGE ( 'NONE', *, *, #191, .T. ) ;
#117 = LINE ( 'NONE', #317, #177 ) ;
#118 = ORIENTED_EDGE ( 'NONE', *, *, #481, .F. ) ;
#119 = CIRCLE ( 'NONE', #241, 1.499999999999945821 ) ;
#120 = EDGE_CURVE ( 'NONE', #81, #531, #270, .T. ) ;
#121 = EDGE_LOOP ( 'NONE', ( #60, #124, #597, #480 ) ) ;
#122 = DIRECTION ( 'NONE',  ( 1.586032892321675912E-14, 1.000000000000000000, 0.000000000000000000 ) ) ;
#123 = CARTESIAN_POINT ( 'NONE',  ( 280.4364222980819932, 807.9190085734289823, -461.6310633114224515 ) ) ;
#124 = ORIENTED_EDGE ( 'NONE', *, *, #429, .F. ) ;
#125 = CARTESIAN_POINT ( 'NONE',  ( 280.4364222980819932, 807.9190085734289823, -461.6310633114224515 ) ) ;
#126 = EDGE_CURVE ( 'NONE', #137, #268, #173, .T. ) ;
#127 = ORIENTED_EDGE ( 'NONE', *, *, #275, .F. ) ;
#128 = CYLINDRICAL_SURFACE ( 'NONE', #56, 1.500000000000056843 ) ;
#129 = CIRCLE ( 'NONE', #504, 3.499999999999947597 ) ;
#130 = ORIENTED_EDGE ( 'NONE', *, *, #436, .T. ) ;
#131 = CLOSED_SHELL ( 'NONE', ( #527, #276, #299, #64, #556, #497, #361, #194, #508, #459, #300, #385, #607, #36, #288, #414, #182, #528, #373 ) ) ;
#132 = CYLINDRICAL_SURFACE ( 'NONE', #476, 1.499999999999945821 ) ;
#133 = VECTOR ( 'NONE', #289, 1000.000000000000000 ) ;
#134 = EDGE_CURVE ( 'NONE', #468, #15, #523, .T. ) ;
#135 = DIRECTION ( 'NONE',  ( -1.000000000000000000, 1.646000966406385943E-14, -1.207399516907697934E-15 ) ) ;
#136 = DIRECTION ( 'NONE',  ( 0.000000000000000000, -1.000000000000000000, 0.000000000000000000 ) ) ;
#137 = VERTEX_POINT ( 'NONE', #125 ) ;
#138 = CARTESIAN_POINT ( 'NONE',  ( 280.4364222980820500, 811.4190085734290960, -467.9810633114225311 ) ) ;
#139 = VECTOR ( 'NONE', #193, 1000.000000000000000 ) ;
#140 = CARTESIAN_POINT ( 'NONE',  ( 280.4364222980815953, 783.3242808914759507, -461.6310633114224515 ) ) ;
#141 = DIRECTION ( 'NONE',  ( 1.000000000000000000, -1.646000966406385943E-14, 1.207399516907697934E-15 ) ) ;
#142 = CARTESIAN_POINT ( 'NONE',  ( 280.4364222980820500, 811.4190085734290960, -467.9810633114225311 ) ) ;
#143 =( NAMED_UNIT ( * ) PLANE_ANGLE_UNIT ( ) SI_UNIT ( $, .RADIAN. ) );
#144 = FACE_OUTER_BOUND ( 'NONE', #391, .T. ) ;
#145 = PLANE ( 'NONE',  #245 ) ;
#146 = AXIS2_PLACEMENT_3D ( 'NONE', #87, #135, #236 ) ;
#147 = EDGE_CURVE ( 'NONE', #340, #81, #297, .T. ) ;
#148 = CARTESIAN_POINT ( 'NONE',  ( 280.4364222980820500, 811.4190085734290960, -467.9810633114225311 ) ) ;
#149 = CARTESIAN_POINT ( 'NONE',  ( 280.4364222980819932, 806.4190085734290960, -461.6310633114224515 ) ) ;
#150 = ORIENTED_EDGE ( 'NONE', *, *, #106, .T. ) ;
#151 = AXIS2_PLACEMENT_3D ( 'NONE', #102, #312, #2 ) ;
#152 = CARTESIAN_POINT ( 'NONE',  ( 280.4364222980820500, 811.4190085734290960, -467.9810633114225311 ) ) ;
#153 = ORIENTED_EDGE ( 'NONE', *, *, #537, .T. ) ;
#154 = AXIS2_PLACEMENT_3D ( 'NONE', #190, #443, #234 ) ;
#155 = EDGE_CURVE ( 'NONE', #290, #420, #648, .T. ) ;
#156 = DIRECTION ( 'NONE',  ( 0.000000000000000000, 1.000000000000000000, 0.000000000000000000 ) ) ;
#157 = CARTESIAN_POINT ( 'NONE',  ( 280.4364222980808563, 736.4190085734290960, -461.6310633114225084 ) ) ;
#158 = EDGE_CURVE ( 'NONE', #415, #371, #399, .T. ) ;
#159 = VERTEX_POINT ( 'NONE', #239 ) ;
#160 = DIRECTION ( 'NONE',  ( -1.000000000000000000, 0.000000000000000000, -1.207399516907709373E-15 ) ) ;
#161 = AXIS2_PLACEMENT_3D ( 'NONE', #522, #519, #327 ) ;
#162 = DIRECTION ( 'NONE',  ( -1.646000966406385943E-14, -1.000000000000000000, 0.000000000000000000 ) ) ;
#163 = ORIENTED_EDGE ( 'NONE', *, *, #593, .F. ) ;
#164 = VERTEX_POINT ( 'NONE', #434 ) ;
#165 = CIRCLE ( 'NONE', #244, 1.499999999999945821 ) ;
#166 = AXIS2_PLACEMENT_3D ( 'NONE', #40, #33, #92 ) ;
#167 = EDGE_LOOP ( 'NONE', ( #388, #205, #38, #587 ) ) ;
#168 = FACE_OUTER_BOUND ( 'NONE', #86, .T. ) ;
#169 = EDGE_LOOP ( 'NONE', ( #379, #3 ) ) ;
#170 = DIRECTION ( 'NONE',  ( 0.000000000000000000, -1.000000000000000000, 0.000000000000000000 ) ) ;
#171 = VERTEX_POINT ( 'NONE', #79 ) ;
#172 = EDGE_LOOP ( 'NONE', ( #75, #346, #605, #509 ) ) ;
#173 = LINE ( 'NONE', #123, #591 ) ;
#174 = ORIENTED_EDGE ( 'NONE', *, *, #324, .F. ) ;
#175 = EDGE_CURVE ( 'NONE', #421, #171, #445, .T. ) ;
#176 = DIRECTION ( 'NONE',  ( -1.000000000000000000, 1.646000966406385943E-14, -1.207399516907697934E-15 ) ) ;
#177 = VECTOR ( 'NONE', #12, 1000.000000000000000 ) ;
#178 = VERTEX_POINT ( 'NONE', #485 ) ;
#179 = FACE_OUTER_BOUND ( 'NONE', #313, .T. ) ;
#180 = EDGE_LOOP ( 'NONE', ( #574, #412 ) ) ;
#181 = CARTESIAN_POINT ( 'NONE',  ( 293.1364222980807313, 731.4190085734288687, -467.9810633114224743 ) ) ;
#182 = ADVANCED_FACE ( 'NONE', ( #144 ), #392, .T. ) ;
#183 = ORIENTED_EDGE ( 'NONE', *, *, #126, .T. ) ;
#184 = CARTESIAN_POINT ( 'NONE',  ( 280.4364222980820500, 811.4190085734290960, -467.9810633114225311 ) ) ;
#185 = VERTEX_POINT ( 'NONE', #189 ) ;
#186 = DIRECTION ( 'NONE',  ( 1.000000000000000000, -1.646000966406385943E-14, 1.207399516907697934E-15 ) ) ;
#187 = DIRECTION ( 'NONE',  ( -1.000000000000000000, 1.646000966406385943E-14, -1.207399516907697934E-15 ) ) ;
#188 = VECTOR ( 'NONE', #357, 1000.000000000000000 ) ;
#189 = CARTESIAN_POINT ( 'NONE',  ( 280.4364222980817658, 789.9190085734292097, -461.6310633114225084 ) ) ;
#190 = CARTESIAN_POINT ( 'NONE',  ( 280.4364222980815384, 779.8242808914760644, -465.1310633114225084 ) ) ;
#191 = EDGE_CURVE ( 'NONE', #209, #531, #604, .T. ) ;
#192 = FACE_OUTER_BOUND ( 'NONE', #463, .T. ) ;
#193 = DIRECTION ( 'NONE',  ( -1.665334536937735757E-14, -1.000000000000000000, 6.938893903907232322E-16 ) ) ;
#194 = ADVANCED_FACE ( 'NONE', ( #396 ), #440, .F. ) ;
#195 = AXIS2_PLACEMENT_3D ( 'NONE', #402, #311, #160 ) ;
#196 = CYLINDRICAL_SURFACE ( 'NONE', #277, 1.499999999999945821 ) ;
#197 = ORIENTED_EDGE ( 'NONE', *, *, #329, .T. ) ;
#198 = AXIS2_PLACEMENT_3D ( 'NONE', #138, #348, #546 ) ;
#199 = CIRCLE ( 'NONE', #501, 1.499999999999945821 ) ;
#200 = VECTOR ( 'NONE', #186, 1000.000000000000000 ) ;
#201 = CARTESIAN_POINT ( 'NONE',  ( 280.4364222980815953, 783.3242808914759507, -461.6310633114224515 ) ) ;
#202 = FACE_BOUND ( 'NONE', #180, .T. ) ;
#203 = DIRECTION ( 'NONE',  ( 1.000000000000000000, -1.646000966406385943E-14, 1.207399516907697934E-15 ) ) ;
#204 = DIRECTION ( 'NONE',  ( 1.000000000000000000, -1.646000966406385943E-14, 0.000000000000000000 ) ) ;
#205 = ORIENTED_EDGE ( 'NONE', *, *, #20, .T. ) ;
#206 = DIRECTION ( 'NONE',  ( 1.207399516907697934E-15, -1.993514744183346816E-29, -1.000000000000000000 ) ) ;
#207 = ORIENTED_EDGE ( 'NONE', *, *, #429, .T. ) ;
#208 = CARTESIAN_POINT ( 'NONE',  ( 280.4364222980810837, 751.4190085734290960, -461.6310633114225084 ) ) ;
#209 = VERTEX_POINT ( 'NONE', #292 ) ;
#210 = FILL_AREA_STYLE_COLOUR ( '', #69 ) ;
#211 = AXIS2_PLACEMENT_3D ( 'NONE', #649, #602, #48 ) ;
#212 = EDGE_CURVE ( 'NONE', #572, #371, #278, .T. ) ;
#213 = VECTOR ( 'NONE', #26, 1000.000000000000000 ) ;
#214 = ORIENTED_EDGE ( 'NONE', *, *, #37, .T. ) ;
#215 = PRESENTATION_STYLE_ASSIGNMENT (( #477 ) ) ;
#216 = DIRECTION ( 'NONE',  ( 1.000000000000000000, -1.646000966406385943E-14, 1.207399516907697934E-15 ) ) ;
#217 = ORIENTED_EDGE ( 'NONE', *, *, #627, .F. ) ;
#218 = DIRECTION ( 'NONE',  ( -1.000000000000000000, 1.646000966406385943E-14, -1.207399516907697934E-15 ) ) ;
#219 = EDGE_CURVE ( 'NONE', #531, #342, #112, .T. ) ;
#220 = EDGE_CURVE ( 'NONE', #415, #363, #89, .T. ) ;
#221 = ORIENTED_EDGE ( 'NONE', *, *, #646, .F. ) ;
#222 = CARTESIAN_POINT ( 'NONE',  ( 280.4364222980812542, 763.0137362553821276, -461.6310633114224515 ) ) ;
#223 = PRODUCT_DEFINITION_SHAPE ( 'NONE', 'NONE',  #338 ) ;
#224 = VERTEX_POINT ( 'NONE', #596 ) ;
#225 = DIRECTION ( 'NONE',  ( 1.000000000000000000, -1.646000966406385943E-14, 1.207399516907697934E-15 ) ) ;
#226 = EDGE_LOOP ( 'NONE', ( #335, #494, #183, #221 ) ) ;
#227 = LINE ( 'NONE', #71, #213 ) ;
#228 = ORIENTED_EDGE ( 'NONE', *, *, #349, .F. ) ;
#229 = DIRECTION ( 'NONE',  ( 1.000000000000000000, -1.646000966406385943E-14, 1.207399516907697934E-15 ) ) ;
#230 = EDGE_CURVE ( 'NONE', #164, #466, #542, .T. ) ;
#231 = ORIENTED_EDGE ( 'NONE', *, *, #61, .T. ) ;
#232 = CIRCLE ( 'NONE', #293, 1.500000000000056843 ) ;
#233 =( LENGTH_UNIT ( ) NAMED_UNIT ( * ) SI_UNIT ( .MILLI., .METRE. ) );
#234 = DIRECTION ( 'NONE',  ( 1.000000000000000000, 0.000000000000000000, 1.207399516907697934E-15 ) ) ;
#235 = ORIENTED_EDGE ( 'NONE', *, *, #481, .T. ) ;
#236 = DIRECTION ( 'NONE',  ( 0.000000000000000000, -1.000000000000000000, 0.000000000000000000 ) ) ;
#237 = LINE ( 'NONE', #651, #282 ) ;
#238 = EDGE_CURVE ( 'NONE', #342, #420, #582, .T. ) ;
#239 = CARTESIAN_POINT ( 'NONE',  ( 293.1364222980812428, 763.0137362553819003, -465.1310633114224515 ) ) ;
#240 = FACE_BOUND ( 'NONE', #643, .T. ) ;
#241 = AXIS2_PLACEMENT_3D ( 'NONE', #625, #470, #419 ) ;
#242 = DIRECTION ( 'NONE',  ( -1.000000000000000000, 1.646000966406385943E-14, -1.207399516907697934E-15 ) ) ;
#243 = CARTESIAN_POINT ( 'NONE',  ( 293.1364222980817544, 792.9190085734288687, -461.6310633114225084 ) ) ;
#244 = AXIS2_PLACEMENT_3D ( 'NONE', #65, #341, #636 ) ;
#245 = AXIS2_PLACEMENT_3D ( 'NONE', #454, #657, #547 ) ;
#246 = DIRECTION ( 'NONE',  ( 1.651081283591191695E-14, 1.000000000000000000, -0.000000000000000000 ) ) ;
#247 = DIRECTION ( 'NONE',  ( -1.000000000000000000, 1.665334536937735757E-14, 0.000000000000000000 ) ) ;
#248 = ORIENTED_EDGE ( 'NONE', *, *, #147, .F. ) ;
#249 = FACE_OUTER_BOUND ( 'NONE', #326, .T. ) ;
#250 = EDGE_CURVE ( 'NONE', #137, #421, #295, .T. ) ;
#251 = DIRECTION ( 'NONE',  ( 0.000000000000000000, 0.000000000000000000, 1.000000000000000000 ) ) ;
#252 = EDGE_CURVE ( 'NONE', #185, #224, #331, .T. ) ;
#253 = APPLICATION_CONTEXT ( 'automotive_design' ) ;
#254 = DIRECTION ( 'NONE',  ( 0.000000000000000000, -1.000000000000000000, 0.000000000000000000 ) ) ;
#255 = CARTESIAN_POINT ( 'NONE',  ( 293.1364222980815271, 779.8242808914758371, -465.1310633114225084 ) ) ;
#256 = DIRECTION ( 'NONE',  ( -1.000000000000000000, 1.646000966406385943E-14, -1.207399516907697934E-15 ) ) ;
#257 = ORIENTED_EDGE ( 'NONE', *, *, #349, .T. ) ;
#258 = FACE_OUTER_BOUND ( 'NONE', #333, .T. ) ;
#259 = DIRECTION ( 'NONE',  ( 1.000000000000000000, -1.646000966406385943E-14, 1.207399516907697934E-15 ) ) ;
#260 = DIRECTION ( 'NONE',  ( 1.000000000000000000, -1.646000966406385943E-14, 1.207399516907697934E-15 ) ) ;
#261 = ORIENTED_EDGE ( 'NONE', *, *, #250, .F. ) ;
#262 = DIRECTION ( 'NONE',  ( -1.000000000000000000, 0.000000000000000000, -1.207399516907697934E-15 ) ) ;
#263 = ORIENTED_EDGE ( 'NONE', *, *, #220, .T. ) ;
#264 = FACE_BOUND ( 'NONE', #579, .T. ) ;
#265 = EDGE_CURVE ( 'NONE', #584, #394, #567, .T. ) ;
#266 = ORIENTED_EDGE ( 'NONE', *, *, #219, .T. ) ;
#267 =( NAMED_UNIT ( * ) SI_UNIT ( $, .STERADIAN. ) SOLID_ANGLE_UNIT ( ) );
#268 = VERTEX_POINT ( 'NONE', #88 ) ;
#269 = EDGE_LOOP ( 'NONE', ( #618, #62 ) ) ;
#270 = LINE ( 'NONE', #22, #492 ) ;
#271 = VECTOR ( 'NONE', #229, 1000.000000000000000 ) ;
#272 = CIRCLE ( 'NONE', #390, 3.500000000000058620 ) ;
#273 = ORIENTED_EDGE ( 'NONE', *, *, #393, .T. ) ;
#274 = CARTESIAN_POINT ( 'NONE',  ( 280.4364222980807426, 731.4190085734290960, -455.2810633114224856 ) ) ;
#275 = EDGE_CURVE ( 'NONE', #224, #428, #237, .T. ) ;
#276 = ADVANCED_FACE ( 'NONE', ( #192 ), #568, .F. ) ;
#277 = AXIS2_PLACEMENT_3D ( 'NONE', #611, #259, #156 ) ;
#278 = LINE ( 'NONE', #495, #133 ) ;
#279 = CIRCLE ( 'NONE', #471, 1.499999999999945821 ) ;
#280 = EDGE_LOOP ( 'NONE', ( #535, #532, #426, #47 ) ) ;
#281 = DIRECTION ( 'NONE',  ( 1.000000000000000000, -1.646000966406385943E-14, 1.207399516907697934E-15 ) ) ;
#282 = VECTOR ( 'NONE', #599, 1000.000000000000000 ) ;
#283 = CIRCLE ( 'NONE', #76, 3.500000000000058620 ) ;
#284 = EDGE_LOOP ( 'NONE', ( #78, #423, #512, #410 ) ) ;
#285 = LINE ( 'NONE', #588, #610 ) ;
#286 = ORIENTED_EDGE ( 'NONE', *, *, #578, .F. ) ;
#287 = CARTESIAN_POINT ( 'NONE',  ( 280.4364222980807426, 731.4190085734290960, -455.2810633114224856 ) ) ;
#288 = ADVANCED_FACE ( 'NONE', ( #95 ), #631, .F. ) ;
#289 = DIRECTION ( 'NONE',  ( 1.665334536937735757E-14, 1.000000000000000000, 6.938893903907232322E-16 ) ) ;
#290 = VERTEX_POINT ( 'NONE', #612 ) ;
#291 = CARTESIAN_POINT ( 'NONE',  ( 293.1364222980817544, 791.4190085734289823, -461.6310633114225084 ) ) ;
#292 = CARTESIAN_POINT ( 'NONE',  ( 280.4364222980815384, 779.8242808914760644, -458.1310633114225084 ) ) ;
#293 = AXIS2_PLACEMENT_3D ( 'NONE', #526, #218, #484 ) ;
#294 = EDGE_LOOP ( 'NONE', ( #34, #21 ) ) ;
#295 = CIRCLE ( 'NONE', #6, 1.499999999999945821 ) ;
#296 = CYLINDRICAL_SURFACE ( 'NONE', #620, 1.499999999999945821 ) ;
#297 = LINE ( 'NONE', #83, #271 ) ;
#298 = APPLICATION_PROTOCOL_DEFINITION ( 'draft international standard', 'automotive_design', 1998, #375 ) ;
#299 = ADVANCED_FACE ( 'NONE', ( #506 ), #549, .F. ) ;
#300 = ADVANCED_FACE ( 'NONE', ( #502 ), #617, .F. ) ;
#301 = ADVANCED_BREP_SHAPE_REPRESENTATION ( 'LoadCell1', ( #386, #559 ), #369 ) ;
#302 = DIRECTION ( 'NONE',  ( 1.000000000000000000, -1.646000966406385943E-14, 1.207399516907697934E-15 ) ) ;
#303 = DIRECTION ( 'NONE',  ( -1.586032892321675912E-14, -1.000000000000000000, 0.000000000000000000 ) ) ;
#304 = DIRECTION ( 'NONE',  ( 0.000000000000000000, -1.000000000000000000, 0.000000000000000000 ) ) ;
#305 = CIRCLE ( 'NONE', #521, 3.499999999999947597 ) ;
#306 = DIRECTION ( 'NONE',  ( 1.000000000000000000, -1.646000966406385943E-14, 1.207399516907697934E-15 ) ) ;
#307 = DIRECTION ( 'NONE',  ( 0.000000000000000000, 1.000000000000000000, 0.000000000000000000 ) ) ;
#308 = FACE_BOUND ( 'NONE', #374, .T. ) ;
#309 = VECTOR ( 'NONE', #630, 1000.000000000000000 ) ;
#310 = VECTOR ( 'NONE', #7, 1000.000000000000000 ) ;
#311 = DIRECTION ( 'NONE',  ( 1.207399516907709373E-15, 6.938893903907031162E-16, -1.000000000000000000 ) ) ;
#312 = DIRECTION ( 'NONE',  ( 1.000000000000000000, -1.646000966406385943E-14, 1.207399516907697934E-15 ) ) ;
#313 = EDGE_LOOP ( 'NONE', ( #163, #197, #153, #479 ) ) ;
#314 = CARTESIAN_POINT ( 'NONE',  ( 280.4364222980815384, 779.8242808914760644, -465.1310633114225084 ) ) ;
#315 = LINE ( 'NONE', #45, #101 ) ;
#316 = EDGE_LOOP ( 'NONE', ( #516, #13, #557, #111 ) ) ;
#317 = CARTESIAN_POINT ( 'NONE',  ( 293.1364222980815271, 779.8242808914758371, -465.1310633114225084 ) ) ;
#318 = EDGE_CURVE ( 'NONE', #466, #164, #380, .T. ) ;
#319 = FACE_BOUND ( 'NONE', #431, .T. ) ;
#320 = ORIENTED_EDGE ( 'NONE', *, *, #486, .F. ) ;
#321 =( LENGTH_UNIT ( ) NAMED_UNIT ( * ) SI_UNIT ( .MILLI., .METRE. ) );
#322 = VECTOR ( 'NONE', #8, 1000.000000000000000 ) ;
#323 = ORIENTED_EDGE ( 'NONE', *, *, #28, .T. ) ;
#324 = EDGE_CURVE ( 'NONE', #518, #164, #555, .T. ) ;
#325 = CIRCLE ( 'NONE', #49, 1.499999999999945821 ) ;
#326 = EDGE_LOOP ( 'NONE', ( #520, #70, #228, #207 ) ) ;
#327 = DIRECTION ( 'NONE',  ( 0.000000000000000000, 1.000000000000000000, 0.000000000000000000 ) ) ;
#328 = AXIS2_PLACEMENT_3D ( 'NONE', #514, #162, #204 ) ;
#329 = EDGE_CURVE ( 'NONE', #394, #584, #491, .T. ) ;
#330 = DIRECTION ( 'NONE',  ( 1.000000000000000000, -1.646000966406385943E-14, 1.207399516907697934E-15 ) ) ;
#331 = CIRCLE ( 'NONE', #435, 1.499999999999945821 ) ;
#332 = ORIENTED_EDGE ( 'NONE', *, *, #147, .T. ) ;
#333 = EDGE_LOOP ( 'NONE', ( #367, #257, #323, #263 ) ) ;
#334 = STYLED_ITEM ( 'NONE', ( #215 ), #386 ) ;
#335 = ORIENTED_EDGE ( 'NONE', *, *, #175, .F. ) ;
#336 = ORIENTED_EDGE ( 'NONE', *, *, #220, .F. ) ;
#337 = CARTESIAN_POINT ( 'NONE',  ( 280.4364222980810837, 751.4190085734290960, -461.6310633114225084 ) ) ;
#338 = PRODUCT_DEFINITION ( 'UNKNOWN', '', #30, #493 ) ;
#339 = AXIS2_PLACEMENT_3D ( 'NONE', #538, #450, #136 ) ;
#340 = VERTEX_POINT ( 'NONE', #99 ) ;
#341 = DIRECTION ( 'NONE',  ( -1.000000000000000000, 1.646000966406385943E-14, -1.207399516907697934E-15 ) ) ;
#342 = VERTEX_POINT ( 'NONE', #511 ) ;
#343 = DIRECTION ( 'NONE',  ( 0.000000000000000000, 1.000000000000000000, 0.000000000000000000 ) ) ;
#344 = DIRECTION ( 'NONE',  ( 0.000000000000000000, -1.000000000000000000, 0.000000000000000000 ) ) ;
#345 = UNCERTAINTY_MEASURE_WITH_UNIT (LENGTH_MEASURE( 1.000000000000000082E-05 ), #321, 'distance_accuracy_value', 'NONE');
#346 = ORIENTED_EDGE ( 'NONE', *, *, #593, .T. ) ;
#347 = CARTESIAN_POINT ( 'NONE',  ( 280.4364222980808563, 734.9190085734290960, -461.6310633114225084 ) ) ;
#348 = DIRECTION ( 'NONE',  ( -1.207399516907686693E-15, 6.938893903907433481E-16, 1.000000000000000000 ) ) ;
#349 = EDGE_CURVE ( 'NONE', #533, #27, #366, .T. ) ;
#350 = PRODUCT_CONTEXT ( 'NONE', #253, 'mechanical' ) ;
#351 = CIRCLE ( 'NONE', #398, 1.499999999999945821 ) ;
#352 = AXIS2_PLACEMENT_3D ( 'NONE', #541, #242, #489 ) ;
#353 = DIRECTION ( 'NONE',  ( 0.000000000000000000, -1.000000000000000000, 0.000000000000000000 ) ) ;
#354 = DIRECTION ( 'NONE',  ( -1.000000000000000000, 1.646000966406385943E-14, -1.207399516907697934E-15 ) ) ;
#355 = CARTESIAN_POINT ( 'NONE',  ( 280.4364222980815384, 779.8242808914760644, -458.1310633114225084 ) ) ;
#356 = DIRECTION ( 'NONE',  ( 0.000000000000000000, -1.000000000000000000, 0.000000000000000000 ) ) ;
#357 = DIRECTION ( 'NONE',  ( 1.000000000000000000, -1.646000966406385943E-14, 1.207399516907697934E-15 ) ) ;
#358 = DIRECTION ( 'NONE',  ( 1.000000000000000000, -1.646000966406385943E-14, 1.207399516907697934E-15 ) ) ;
#359 = EDGE_LOOP ( 'NONE', ( #453, #564, #487, #114 ) ) ;
#360 = CARTESIAN_POINT ( 'NONE',  ( 293.1364222980810723, 749.9190085734289823, -461.6310633114225084 ) ) ;
#361 = ADVANCED_FACE ( 'NONE', ( #202, #319, #517, #59, #46, #264 ), #469, .F. ) ;
#362 = DIRECTION ( 'NONE',  ( 1.586032892321625740E-14, 1.000000000000000000, 0.000000000000000000 ) ) ;
#363 = VERTEX_POINT ( 'NONE', #152 ) ;
#364 = VECTOR ( 'NONE', #496, 1000.000000000000000 ) ;
#365 = CARTESIAN_POINT ( 'NONE',  ( 293.1364222980807313, 731.4190085734288687, -455.2810633114224856 ) ) ;
#366 = LINE ( 'NONE', #608, #322 ) ;
#367 = ORIENTED_EDGE ( 'NONE', *, *, #437, .T. ) ;
#368 = DIRECTION ( 'NONE',  ( 0.000000000000000000, -1.000000000000000000, 0.000000000000000000 ) ) ;
#369 =( GEOMETRIC_REPRESENTATION_CONTEXT ( 3 ) GLOBAL_UNCERTAINTY_ASSIGNED_CONTEXT ( ( #583 ) ) GLOBAL_UNIT_ASSIGNED_CONTEXT ( ( #233, #143, #442 ) ) REPRESENTATION_CONTEXT ( 'NONE', 'WORKASPACE' ) );
#370 = DIRECTION ( 'NONE',  ( 1.586032892321675912E-14, 1.000000000000000000, 0.000000000000000000 ) ) ;
#371 = VERTEX_POINT ( 'NONE', #634 ) ;
#372 = ORIENTED_EDGE ( 'NONE', *, *, #230, .F. ) ;
#373 = ADVANCED_FACE ( 'NONE', ( #565 ), #63, .T. ) ;
#374 = EDGE_LOOP ( 'NONE', ( #31, #629 ) ) ;
#375 = APPLICATION_CONTEXT ( 'automotive_design' ) ;
#376 = CYLINDRICAL_SURFACE ( 'NONE', #387, 3.499999999999947597 ) ;
#377 = EDGE_CURVE ( 'NONE', #420, #159, #117, .T. ) ;
#378 = ORIENTED_EDGE ( 'NONE', *, *, #377, .T. ) ;
#379 = ORIENTED_EDGE ( 'NONE', *, *, #105, .T. ) ;
#380 = CIRCLE ( 'NONE', #84, 1.499999999999945821 ) ;
#381 = ORIENTED_EDGE ( 'NONE', *, *, #544, .F. ) ;
#382 = CARTESIAN_POINT ( 'NONE',  ( 293.1364222980817544, 791.4190085734289823, -461.6310633114225084 ) ) ;
#383 = ORIENTED_EDGE ( 'NONE', *, *, #238, .F. ) ;
#384 = CARTESIAN_POINT ( 'NONE',  ( 280.4364222980817658, 789.9190085734292097, -461.6310633114225084 ) ) ;
#385 = ADVANCED_FACE ( 'NONE', ( #515 ), #115, .F. ) ;
#386 = MANIFOLD_SOLID_BREP ( 'Boss-Extrude1', #131 ) ;
#387 = AXIS2_PLACEMENT_3D ( 'NONE', #575, #467, #122 ) ;
#388 = ORIENTED_EDGE ( 'NONE', *, *, #37, .F. ) ;
#389 = DIRECTION ( 'NONE',  ( 0.000000000000000000, 0.000000000000000000, 1.000000000000000000 ) ) ;
#390 = AXIS2_PLACEMENT_3D ( 'NONE', #395, #595, #644 ) ;
#391 = EDGE_LOOP ( 'NONE', ( #656, #566, #635, #613 ) ) ;
#392 = PLANE ( 'NONE',  #154 ) ;
#393 = EDGE_CURVE ( 'NONE', #224, #185, #119, .T. ) ;
#394 = VERTEX_POINT ( 'NONE', #58 ) ;
#395 = CARTESIAN_POINT ( 'NONE',  ( 293.1364222980812428, 763.0137362553819003, -461.6310633114224515 ) ) ;
#396 = FACE_OUTER_BOUND ( 'NONE', #121, .T. ) ;
#397 = CARTESIAN_POINT ( 'NONE',  ( 280.4364222980815384, 779.8242808914760644, -465.1310633114225084 ) ) ;
#398 = AXIS2_PLACEMENT_3D ( 'NONE', #337, #17, #77 ) ;
#399 = LINE ( 'NONE', #42, #364 ) ;
#400 = CARTESIAN_POINT ( 'NONE',  ( 280.4364222980819932, 806.4190085734290960, -461.6310633114224515 ) ) ;
#401 = SHAPE_DEFINITION_REPRESENTATION ( #223, #301 ) ;
#402 = CARTESIAN_POINT ( 'NONE',  ( 280.4364222980820500, 811.4190085734290960, -455.2810633114224288 ) ) ;
#403 = EDGE_CURVE ( 'NONE', #418, #72, #405, .T. ) ;
#404 = CARTESIAN_POINT ( 'NONE',  ( 280.4364222980812542, 763.0137362553821276, -461.6310633114224515 ) ) ;
#405 = CIRCLE ( 'NONE', #457, 1.500000000000056843 ) ;
#406 = DIRECTION ( 'NONE',  ( -1.665334536937735757E-14, -1.000000000000000000, 0.000000000000000000 ) ) ;
#407 = VERTEX_POINT ( 'NONE', #622 ) ;
#408 = CARTESIAN_POINT ( 'NONE',  ( 293.1364222980815839, 779.8242808914760644, -458.1310633114225084 ) ) ;
#409 = DIRECTION ( 'NONE',  ( 0.000000000000000000, 1.000000000000000000, 0.000000000000000000 ) ) ;
#410 = ORIENTED_EDGE ( 'NONE', *, *, #191, .F. ) ;
#411 = LINE ( 'NONE', #142, #139 ) ;
#412 = ORIENTED_EDGE ( 'NONE', *, *, #318, .T. ) ;
#413 = CYLINDRICAL_SURFACE ( 'NONE', #592, 3.499999999999947597 ) ;
#414 = ADVANCED_FACE ( 'NONE', ( #168 ), #376, .F. ) ;
#415 = VERTEX_POINT ( 'NONE', #558 ) ;
#416 = SURFACE_STYLE_FILL_AREA ( #619 ) ;
#417 = VECTOR ( 'NONE', #203, 1000.000000000000000 ) ;
#418 = VERTEX_POINT ( 'NONE', #104 ) ;
#419 = DIRECTION ( 'NONE',  ( 0.000000000000000000, -1.000000000000000000, 0.000000000000000000 ) ) ;
#420 = VERTEX_POINT ( 'NONE', #255 ) ;
#421 = VERTEX_POINT ( 'NONE', #458 ) ;
#422 = ORIENTED_EDGE ( 'NONE', *, *, #120, .F. ) ;
#423 = ORIENTED_EDGE ( 'NONE', *, *, #627, .T. ) ;
#424 = DIRECTION ( 'NONE',  ( 0.000000000000000000, -1.000000000000000000, 0.000000000000000000 ) ) ;
#425 = CARTESIAN_POINT ( 'NONE',  ( 293.1364222980685668, -4.881702080873385919E-12, 0.000000000000000000 ) ) ;
#426 = ORIENTED_EDGE ( 'NONE', *, *, #212, .F. ) ;
#427 = FACE_OUTER_BOUND ( 'NONE', #316, .T. ) ;
#428 = VERTEX_POINT ( 'NONE', #243 ) ;
#429 = EDGE_CURVE ( 'NONE', #533, #15, #464, .T. ) ;
#430 = CARTESIAN_POINT ( 'NONE',  ( 293.1364222980812428, 763.0137362553819003, -458.1310633114225084 ) ) ;
#431 = EDGE_LOOP ( 'NONE', ( #231, #103 ) ) ;
#432 = CARTESIAN_POINT ( 'NONE',  ( 293.1364222980807313, 731.4190085734288687, -467.9810633114224743 ) ) ;
#433 = DIRECTION ( 'NONE',  ( 1.000000000000000000, -1.646000966406385943E-14, 1.207399516907697934E-15 ) ) ;
#434 = CARTESIAN_POINT ( 'NONE',  ( 293.1364222980810723, 752.9190085734288687, -461.6310633114225084 ) ) ;
#435 = AXIS2_PLACEMENT_3D ( 'NONE', #598, #43, #353 ) ;
#436 = EDGE_CURVE ( 'NONE', #518, #23, #279, .T. ) ;
#437 = EDGE_CURVE ( 'NONE', #363, #533, #411, .T. ) ;
#438 = VECTOR ( 'NONE', #499, 1000.000000000000000 ) ;
#439 = EDGE_LOOP ( 'NONE', ( #261, #562 ) ) ;
#440 = PLANE ( 'NONE',  #198 ) ;
#441 = ORIENTED_EDGE ( 'NONE', *, *, #82, .F. ) ;
#442 =( NAMED_UNIT ( * ) SI_UNIT ( $, .STERADIAN. ) SOLID_ANGLE_UNIT ( ) );
#443 = DIRECTION ( 'NONE',  ( -1.207399516907697934E-15, 1.993514744183346816E-29, 1.000000000000000000 ) ) ;
#444 = DIRECTION ( 'NONE',  ( -1.000000000000000000, 1.646000966406385943E-14, -1.207399516907697934E-15 ) ) ;
#445 = LINE ( 'NONE', #601, #438 ) ;
#446 = DIRECTION ( 'NONE',  ( -1.000000000000000000, 1.646000966406385943E-14, -1.207399516907697934E-15 ) ) ;
#447 = AXIS2_PLACEMENT_3D ( 'NONE', #208, #260, #409 ) ;
#448 = VECTOR ( 'NONE', #645, 1000.000000000000000 ) ;
#449 = LINE ( 'NONE', #347, #200 ) ;
#450 = DIRECTION ( 'NONE',  ( -1.000000000000000000, 1.646000966406385943E-14, -1.207399516907697934E-15 ) ) ;
#451 = PRODUCT_RELATED_PRODUCT_CATEGORY ( 'part', '', ( #641 ) ) ;
#452 = DIRECTION ( 'NONE',  ( 1.000000000000000000, -1.646000966406385943E-14, 1.207399516907697934E-15 ) ) ;
#453 = ORIENTED_EDGE ( 'NONE', *, *, #19, .F. ) ;
#454 = CARTESIAN_POINT ( 'NONE',  ( 280.4364222980807426, 731.4190085734290960, -467.9810633114224743 ) ) ;
#455 = VECTOR ( 'NONE', #246, 1000.000000000000000 ) ;
#456 = CARTESIAN_POINT ( 'NONE',  ( 280.4364222980808563, 737.9190085734292097, -461.6310633114225084 ) ) ;
#457 = AXIS2_PLACEMENT_3D ( 'NONE', #474, #110, #170 ) ;
#458 = CARTESIAN_POINT ( 'NONE',  ( 280.4364222980819932, 804.9190085734290960, -461.6310633114224515 ) ) ;
#459 = ADVANCED_FACE ( 'NONE', ( #9 ), #614, .F. ) ;
#460 = VECTOR ( 'NONE', #655, 1000.000000000000000 ) ;
#461 = EDGE_CURVE ( 'NONE', #421, #137, #66, .T. ) ;
#462 = DIRECTION ( 'NONE',  ( -1.000000000000000000, 1.646000966406385943E-14, -1.207399516907697934E-15 ) ) ;
#463 = EDGE_LOOP ( 'NONE', ( #130, #214, #372, #174 ) ) ;
#464 = LINE ( 'NONE', #500, #417 ) ;
#465 = LINE ( 'NONE', #10, #455 ) ;
#466 = VERTEX_POINT ( 'NONE', #360 ) ;
#467 = DIRECTION ( 'NONE',  ( 1.000000000000000000, -1.646000966406385943E-14, 1.207399516907697934E-15 ) ) ;
#468 = VERTEX_POINT ( 'NONE', #551 ) ;
#469 = PLANE ( 'NONE',  #545 ) ;
#470 = DIRECTION ( 'NONE',  ( -1.000000000000000000, 1.646000966406385943E-14, -1.207399516907697934E-15 ) ) ;
#471 = AXIS2_PLACEMENT_3D ( 'NONE', #507, #652, #356 ) ;
#472 =( GEOMETRIC_REPRESENTATION_CONTEXT ( 3 ) GLOBAL_UNCERTAINTY_ASSIGNED_CONTEXT ( ( #345 ) ) GLOBAL_UNIT_ASSIGNED_CONTEXT ( ( #321, #14, #267 ) ) REPRESENTATION_CONTEXT ( 'NONE', 'WORKASPACE' ) );
#473 = ORIENTED_EDGE ( 'NONE', *, *, #212, .T. ) ;
#474 = CARTESIAN_POINT ( 'NONE',  ( 293.1364222980808449, 736.4190085734288687, -461.6310633114225084 ) ) ;
#475 = CARTESIAN_POINT ( 'NONE',  ( 293.1364222980808449, 737.9190085734289823, -461.6310633114225084 ) ) ;
#476 = AXIS2_PLACEMENT_3D ( 'NONE', #581, #225, #638 ) ;
#477 = SURFACE_STYLE_USAGE ( .BOTH. , #16 ) ;
#478 = DIRECTION ( 'NONE',  ( -1.000000000000000000, 1.646000966406385943E-14, -1.207399516907697934E-15 ) ) ;
#479 = ORIENTED_EDGE ( 'NONE', *, *, #403, .F. ) ;
#480 = ORIENTED_EDGE ( 'NONE', *, *, #578, .T. ) ;
#481 = EDGE_CURVE ( 'NONE', #529, #290, #305, .T. ) ;
#482 = ORIENTED_EDGE ( 'NONE', *, *, #106, .F. ) ;
#483 = ORIENTED_EDGE ( 'NONE', *, *, #158, .T. ) ;
#484 = DIRECTION ( 'NONE',  ( 0.000000000000000000, -1.000000000000000000, 0.000000000000000000 ) ) ;
#485 = CARTESIAN_POINT ( 'NONE',  ( 280.4364222980812542, 763.0137362553821276, -465.1310633114224515 ) ) ;
#486 = EDGE_CURVE ( 'NONE', #290, #178, #561, .T. ) ;
#487 = ORIENTED_EDGE ( 'NONE', *, *, #275, .T. ) ;
#488 = DIRECTION ( 'NONE',  ( 1.000000000000000000, -1.646000966406385943E-14, 1.207399516907697934E-15 ) ) ;
#489 = DIRECTION ( 'NONE',  ( -1.586032892321675912E-14, -1.000000000000000000, 0.000000000000000000 ) ) ;
#490 = AXIS2_PLACEMENT_3D ( 'NONE', #400, #446, #368 ) ;
#491 = CIRCLE ( 'NONE', #616, 1.500000000000056843 ) ;
#492 = VECTOR ( 'NONE', #590, 1000.000000000000000 ) ;
#493 = PRODUCT_DEFINITION_CONTEXT ( 'detailed design', #375, 'design' ) ;
#494 = ORIENTED_EDGE ( 'NONE', *, *, #461, .T. ) ;
#495 = CARTESIAN_POINT ( 'NONE',  ( 293.1364222980820387, 811.4190085734288687, -455.2810633114224288 ) ) ;
#496 = DIRECTION ( 'NONE',  ( 1.000000000000000000, -1.646000966406385943E-14, 1.207399516907697934E-15 ) ) ;
#497 = ADVANCED_FACE ( 'NONE', ( #96, #308, #258, #52, #4, #240 ), #503, .T. ) ;
#498 = LINE ( 'NONE', #287, #554 ) ;
#499 = DIRECTION ( 'NONE',  ( 1.000000000000000000, -1.646000966406385943E-14, 1.207399516907697934E-15 ) ) ;
#500 = CARTESIAN_POINT ( 'NONE',  ( 280.4364222980807426, 731.4190085734290960, -467.9810633114224743 ) ) ;
#501 = AXIS2_PLACEMENT_3D ( 'NONE', #382, #478, #424 ) ;
#502 = FACE_OUTER_BOUND ( 'NONE', #550, .T. ) ;
#503 = PLANE ( 'NONE',  #211 ) ;
#504 = AXIS2_PLACEMENT_3D ( 'NONE', #650, #32, #540 ) ;
#505 = CARTESIAN_POINT ( 'NONE',  ( 280.4364222980815384, 779.8242808914760644, -461.6310633114224515 ) ) ;
#506 = FACE_OUTER_BOUND ( 'NONE', #172, .T. ) ;
#507 = CARTESIAN_POINT ( 'NONE',  ( 280.4364222980810837, 751.4190085734290960, -461.6310633114225084 ) ) ;
#508 = ADVANCED_FACE ( 'NONE', ( #249 ), #145, .F. ) ;
#509 = ORIENTED_EDGE ( 'NONE', *, *, #537, .F. ) ;
#510 = FACE_OUTER_BOUND ( 'NONE', #109, .T. ) ;
#511 = CARTESIAN_POINT ( 'NONE',  ( 293.1364222980815839, 783.3242808914757234, -461.6310633114224515 ) ) ;
#512 = ORIENTED_EDGE ( 'NONE', *, *, #219, .F. ) ;
#513 = ORIENTED_EDGE ( 'NONE', *, *, #158, .F. ) ;
#514 = CARTESIAN_POINT ( 'NONE',  ( 280.4364222980820500, 811.4190085734290960, -467.9810633114225311 ) ) ;
#515 = FACE_OUTER_BOUND ( 'NONE', #359, .T. ) ;
#516 = ORIENTED_EDGE ( 'NONE', *, *, #250, .T. ) ;
#517 = FACE_BOUND ( 'NONE', #169, .T. ) ;
#518 = VERTEX_POINT ( 'NONE', #93 ) ;
#519 = DIRECTION ( 'NONE',  ( 1.000000000000000000, -1.646000966406385943E-14, 1.207399516907697934E-15 ) ) ;
#520 = ORIENTED_EDGE ( 'NONE', *, *, #94, .T. ) ;
#521 = AXIS2_PLACEMENT_3D ( 'NONE', #90, #354, #303 ) ;
#522 = CARTESIAN_POINT ( 'NONE',  ( 280.4364222980817658, 791.4190085734292097, -461.6310633114225084 ) ) ;
#523 = LINE ( 'NONE', #585, #309 ) ;
#524 = VECTOR ( 'NONE', #141, 1000.000000000000000 ) ;
#525 = ORIENTED_EDGE ( 'NONE', *, *, #19, .T. ) ;
#526 = CARTESIAN_POINT ( 'NONE',  ( 293.1364222980808449, 736.4190085734288687, -461.6310633114225084 ) ) ;
#527 = ADVANCED_FACE ( 'NONE', ( #44 ), #413, .F. ) ;
#528 = ADVANCED_FACE ( 'NONE', ( #510 ), #98, .F. ) ;
#529 = VERTEX_POINT ( 'NONE', #201 ) ;
#530 = CARTESIAN_POINT ( 'NONE',  ( 280.4364222980810837, 749.9190085734292097, -461.6310633114225084 ) ) ;
#531 = VERTEX_POINT ( 'NONE', #408 ) ;
#532 = ORIENTED_EDGE ( 'NONE', *, *, #552, .F. ) ;
#533 = VERTEX_POINT ( 'NONE', #553 ) ;
#534 = LINE ( 'NONE', #140, #74 ) ;
#535 = ORIENTED_EDGE ( 'NONE', *, *, #134, .F. ) ;
#536 = FACE_OUTER_BOUND ( 'NONE', #226, .T. ) ;
#537 = EDGE_CURVE ( 'NONE', #584, #72, #50, .T. ) ;
#538 = CARTESIAN_POINT ( 'NONE',  ( 293.1364222980810723, 751.4190085734288687, -461.6310633114225084 ) ) ;
#539 = ORIENTED_EDGE ( 'NONE', *, *, #552, .T. ) ;
#540 = DIRECTION ( 'NONE',  ( -1.586032892321675912E-14, -1.000000000000000000, 0.000000000000000000 ) ) ;
#541 = CARTESIAN_POINT ( 'NONE',  ( 293.1364222980815271, 779.8242808914758371, -461.6310633114224515 ) ) ;
#542 = CIRCLE ( 'NONE', #339, 1.499999999999945821 ) ;
#543 = CARTESIAN_POINT ( 'NONE',  ( 280.4364222980808563, 736.4190085734290960, -461.6310633114225084 ) ) ;
#544 = EDGE_CURVE ( 'NONE', #178, #159, #563, .T. ) ;
#545 = AXIS2_PLACEMENT_3D ( 'NONE', #425, #247, #406 ) ;
#546 = DIRECTION ( 'NONE',  ( 1.000000000000000000, 0.000000000000000000, 1.207399516907686693E-15 ) ) ;
#547 = DIRECTION ( 'NONE',  ( -1.000000000000000000, 1.646000966406385943E-14, 0.000000000000000000 ) ) ;
#548 = CARTESIAN_POINT ( 'NONE',  ( 280.4364222980808563, 737.9190085734292097, -461.6310633114225084 ) ) ;
#549 = CYLINDRICAL_SURFACE ( 'NONE', #5, 1.500000000000056843 ) ;
#550 = EDGE_LOOP ( 'NONE', ( #539, #286, #336, #483 ) ) ;
#551 = CARTESIAN_POINT ( 'NONE',  ( 293.1364222980820387, 811.4190085734288687, -467.9810633114225311 ) ) ;
#552 = EDGE_CURVE ( 'NONE', #371, #468, #315, .T. ) ;
#553 = CARTESIAN_POINT ( 'NONE',  ( 280.4364222980807426, 731.4190085734290960, -467.9810633114224743 ) ) ;
#554 = VECTOR ( 'NONE', #488, 1000.000000000000000 ) ;
#555 = LINE ( 'NONE', #108, #460 ) ;
#556 = ADVANCED_FACE ( 'NONE', ( #57 ), #196, .F. ) ;
#557 = ORIENTED_EDGE ( 'NONE', *, *, #105, .F. ) ;
#558 = CARTESIAN_POINT ( 'NONE',  ( 280.4364222980820500, 811.4190085734290960, -455.2810633114224288 ) ) ;
#559 = AXIS2_PLACEMENT_3D ( 'NONE', #91, #251, #653 ) ;
#560 = AXIS2_PLACEMENT_3D ( 'NONE', #570, #206, #262 ) ;
#561 = LINE ( 'NONE', #314, #85 ) ;
#562 = ORIENTED_EDGE ( 'NONE', *, *, #461, .F. ) ;
#563 = LINE ( 'NONE', #107, #80 ) ;
#564 = ORIENTED_EDGE ( 'NONE', *, *, #252, .T. ) ;
#565 = FACE_OUTER_BOUND ( 'NONE', #11, .T. ) ;
#566 = ORIENTED_EDGE ( 'NONE', *, *, #155, .F. ) ;
#567 = CIRCLE ( 'NONE', #577, 1.500000000000056843 ) ;
#568 = CYLINDRICAL_SURFACE ( 'NONE', #151, 1.499999999999945821 ) ;
#569 = ORIENTED_EDGE ( 'NONE', *, *, #120, .T. ) ;
#570 = CARTESIAN_POINT ( 'NONE',  ( 280.4364222980815384, 779.8242808914760644, -458.1310633114225084 ) ) ;
#571 = EDGE_CURVE ( 'NONE', #340, #209, #465, .T. ) ;
#572 = VERTEX_POINT ( 'NONE', #365 ) ;
#573 = ORIENTED_EDGE ( 'NONE', *, *, #628, .F. ) ;
#574 = ORIENTED_EDGE ( 'NONE', *, *, #230, .T. ) ;
#575 = CARTESIAN_POINT ( 'NONE',  ( 280.4364222980815384, 779.8242808914760644, -461.6310633114224515 ) ) ;
#576 = EDGE_LOOP ( 'NONE', ( #273, #525, #482, #127 ) ) ;
#577 = AXIS2_PLACEMENT_3D ( 'NONE', #543, #187, #304 ) ;
#578 = EDGE_CURVE ( 'NONE', #363, #468, #654, .T. ) ;
#579 = EDGE_LOOP ( 'NONE', ( #266, #623, #378, #632, #569 ) ) ;
#580 = VECTOR ( 'NONE', #216, 1000.000000000000000 ) ;
#581 = CARTESIAN_POINT ( 'NONE',  ( 280.4364222980819932, 806.4190085734290960, -461.6310633114224515 ) ) ;
#582 = CIRCLE ( 'NONE', #352, 3.499999999999947597 ) ;
#583 = UNCERTAINTY_MEASURE_WITH_UNIT (LENGTH_MEASURE( 1.000000000000000082E-05 ), #233, 'distance_accuracy_value', 'NONE');
#584 = VERTEX_POINT ( 'NONE', #548 ) ;
#585 = CARTESIAN_POINT ( 'NONE',  ( 293.1364222980820387, 811.4190085734288687, -467.9810633114225311 ) ) ;
#586 = MECHANICAL_DESIGN_GEOMETRIC_PRESENTATION_REPRESENTATION (  '', ( #334 ), #472 ) ;
#587 = ORIENTED_EDGE ( 'NONE', *, *, #318, .F. ) ;
#588 = CARTESIAN_POINT ( 'NONE',  ( 280.4364222980820500, 811.4190085734290960, -455.2810633114224288 ) ) ;
#589 = ORIENTED_EDGE ( 'NONE', *, *, #571, .T. ) ;
#590 = DIRECTION ( 'NONE',  ( 1.651081283591191695E-14, 1.000000000000000000, -0.000000000000000000 ) ) ;
#591 = VECTOR ( 'NONE', #330, 1000.000000000000000 ) ;
#592 = AXIS2_PLACEMENT_3D ( 'NONE', #505, #53, #370 ) ;
#593 = EDGE_CURVE ( 'NONE', #394, #418, #449, .T. ) ;
#594 = ORIENTED_EDGE ( 'NONE', *, *, #571, .F. ) ;
#595 = DIRECTION ( 'NONE',  ( -1.000000000000000000, 1.646000966406385943E-14, -1.207399516907697934E-15 ) ) ;
#596 = CARTESIAN_POINT ( 'NONE',  ( 280.4364222980817658, 792.9190085734290960, -461.6310633114225084 ) ) ;
#597 = ORIENTED_EDGE ( 'NONE', *, *, #437, .F. ) ;
#598 = CARTESIAN_POINT ( 'NONE',  ( 280.4364222980817658, 791.4190085734292097, -461.6310633114225084 ) ) ;
#599 = DIRECTION ( 'NONE',  ( 1.000000000000000000, -1.646000966406385943E-14, 1.207399516907697934E-15 ) ) ;
#600 = EDGE_CURVE ( 'NONE', #159, #81, #272, .T. ) ;
#601 = CARTESIAN_POINT ( 'NONE',  ( 280.4364222980819932, 804.9190085734290960, -461.6310633114224515 ) ) ;
#602 = DIRECTION ( 'NONE',  ( -1.000000000000000000, 1.665334536937735757E-14, 0.000000000000000000 ) ) ;
#603 = DIRECTION ( 'NONE',  ( 1.000000000000000000, -1.646000966406385943E-14, 1.207399516907697934E-15 ) ) ;
#604 = LINE ( 'NONE', #355, #524 ) ;
#605 = ORIENTED_EDGE ( 'NONE', *, *, #61, .F. ) ;
#606 = EDGE_CURVE ( 'NONE', #27, #572, #498, .T. ) ;
#607 = ADVANCED_FACE ( 'NONE', ( #536 ), #296, .F. ) ;
#608 = CARTESIAN_POINT ( 'NONE',  ( 280.4364222980807426, 731.4190085734290960, -467.9810633114224743 ) ) ;
#609 = APPLICATION_PROTOCOL_DEFINITION ( 'draft international standard', 'automotive_design', 1998, #253 ) ;
#610 = VECTOR ( 'NONE', #73, 1000.000000000000000 ) ;
#611 = CARTESIAN_POINT ( 'NONE',  ( 280.4364222980817658, 791.4190085734292097, -461.6310633114225084 ) ) ;
#612 = CARTESIAN_POINT ( 'NONE',  ( 280.4364222980815384, 779.8242808914760644, -465.1310633114225084 ) ) ;
#613 = ORIENTED_EDGE ( 'NONE', *, *, #544, .T. ) ;
#614 = PLANE ( 'NONE',  #195 ) ;
#615 = CIRCLE ( 'NONE', #146, 1.499999999999945821 ) ;
#616 = AXIS2_PLACEMENT_3D ( 'NONE', #157, #462, #54 ) ;
#617 = PLANE ( 'NONE',  #328 ) ;
#618 = ORIENTED_EDGE ( 'NONE', *, *, #265, .F. ) ;
#619 = FILL_AREA_STYLE ('',( #210 ) ) ;
#620 = AXIS2_PLACEMENT_3D ( 'NONE', #39, #603, #343 ) ;
#621 = ORIENTED_EDGE ( 'NONE', *, *, #82, .T. ) ;
#622 = CARTESIAN_POINT ( 'NONE',  ( 293.1364222980817544, 789.9190085734289823, -461.6310633114225084 ) ) ;
#623 = ORIENTED_EDGE ( 'NONE', *, *, #238, .T. ) ;
#624 = ORIENTED_EDGE ( 'NONE', *, *, #606, .T. ) ;
#625 = CARTESIAN_POINT ( 'NONE',  ( 280.4364222980817658, 791.4190085734292097, -461.6310633114225084 ) ) ;
#626 = DIRECTION ( 'NONE',  ( 0.000000000000000000, 1.000000000000000000, 0.000000000000000000 ) ) ;
#627 = EDGE_CURVE ( 'NONE', #529, #342, #534, .T. ) ;
#628 = EDGE_CURVE ( 'NONE', #209, #529, #129, .T. ) ;
#629 = ORIENTED_EDGE ( 'NONE', *, *, #252, .F. ) ;
#630 = DIRECTION ( 'NONE',  ( -1.665334536937735757E-14, -1.000000000000000000, 6.938893903907232322E-16 ) ) ;
#631 = CYLINDRICAL_SURFACE ( 'NONE', #447, 1.499999999999945821 ) ;
#632 = ORIENTED_EDGE ( 'NONE', *, *, #600, .T. ) ;
#633 = DIRECTION ( 'NONE',  ( -1.586032892321625740E-14, -1.000000000000000000, 0.000000000000000000 ) ) ;
#634 = CARTESIAN_POINT ( 'NONE',  ( 293.1364222980820387, 811.4190085734288687, -455.2810633114224288 ) ) ;
#635 = ORIENTED_EDGE ( 'NONE', *, *, #486, .T. ) ;
#636 = DIRECTION ( 'NONE',  ( 0.000000000000000000, -1.000000000000000000, 0.000000000000000000 ) ) ;
#637 = ORIENTED_EDGE ( 'NONE', *, *, #647, .T. ) ;
#638 = DIRECTION ( 'NONE',  ( 0.000000000000000000, 1.000000000000000000, 0.000000000000000000 ) ) ;
#639 = ORIENTED_EDGE ( 'NONE', *, *, #155, .T. ) ;
#640 = DIRECTION ( 'NONE',  ( 0.000000000000000000, -1.000000000000000000, 0.000000000000000000 ) ) ;
#641 = PRODUCT ( 'LoadCell1', 'LoadCell1', '', ( #350 ) ) ;
#642 = VECTOR ( 'NONE', #302, 1000.000000000000000 ) ;
#643 = EDGE_LOOP ( 'NONE', ( #320, #118, #573, #594, #441 ) ) ;
#644 = DIRECTION ( 'NONE',  ( -1.586032892321625740E-14, -1.000000000000000000, 0.000000000000000000 ) ) ;
#645 = DIRECTION ( 'NONE',  ( -0.000000000000000000, -0.000000000000000000, -1.000000000000000000 ) ) ;
#646 = EDGE_CURVE ( 'NONE', #171, #268, #615, .T. ) ;
#647 = EDGE_CURVE ( 'NONE', #407, #428, #325, .T. ) ;
#648 = LINE ( 'NONE', #397, #642 ) ;
#649 = CARTESIAN_POINT ( 'NONE',  ( 280.4364222980685781, -4.672659958139774665E-12, -1.533397386472776357E-14 ) ) ;
#650 = CARTESIAN_POINT ( 'NONE',  ( 280.4364222980815384, 779.8242808914760644, -461.6310633114224515 ) ) ;
#651 = CARTESIAN_POINT ( 'NONE',  ( 280.4364222980817658, 792.9190085734290960, -461.6310633114225084 ) ) ;
#652 = DIRECTION ( 'NONE',  ( -1.000000000000000000, 1.646000966406385943E-14, -1.207399516907697934E-15 ) ) ;
#653 = DIRECTION ( 'NONE',  ( 1.000000000000000000, 0.000000000000000000, 0.000000000000000000 ) ) ;
#654 = LINE ( 'NONE', #148, #188 ) ;
#655 = DIRECTION ( 'NONE',  ( 1.000000000000000000, -1.646000966406385943E-14, 1.207399516907697934E-15 ) ) ;
#656 = ORIENTED_EDGE ( 'NONE', *, *, #377, .F. ) ;
#657 = DIRECTION ( 'NONE',  ( 1.646000966406385943E-14, 1.000000000000000000, -0.000000000000000000 ) ) ;
#658 = EDGE_LOOP ( 'NONE', ( #150, #637 ) ) ;
ENDSEC;
END-ISO-10303-21;
